<svg width="30" height="30" viewBox="0 0 30 30" fill="none" xmlns="http://www.w3.org/2000/svg">
<g id="Aliexpress">
<rect id="Rectangle 7908" width="30" height="30" rx="6" fill="black"/>
<g id="Group 122879">
<path id="Vector" d="M6.25034 3H24.0821C26.249 3 27.3324 4.11524 27.3324 6.34572V24.7007C27.3324 26.9312 26.249 28.0465 24.0821 28.0465H6.25034C4.08345 28.0465 3 26.9312 3 24.7007V6.34572C3 4.11524 4.08345 3 6.25034 3Z" fill="#F0912E"/>
<path id="Vector_2" d="M6.25034 6.76367H24.0821C26.249 6.76367 27.3324 7.87891 27.3324 10.1094V24.7005C27.3324 26.931 26.249 28.0462 24.0821 28.0462H6.25034C4.08345 28.0462 3 26.931 3 24.7005V10.1094C3 7.87891 4.08345 6.76367 6.25034 6.76367Z" fill="#D53423"/>
<path id="Vector_3" d="M7.51416 26.7936L8.41703 24.2378H8.77818L9.68105 26.7936H9.27476L9.09419 26.1895H8.19131L7.9656 26.7936H7.51416ZM8.59761 24.7025L8.23646 25.8177H8.91361L8.59761 24.7025ZM9.90677 26.7936V24.2378H10.2228V26.7936H9.90677ZM10.6291 26.7936V25.0278H10.9451V26.84L10.6291 26.7936ZM10.8096 23.959C10.7645 24.1913 10.5839 24.3772 10.3582 24.4237C10.6291 24.4237 10.8096 24.656 10.8096 24.9348C10.8096 24.9348 10.8548 24.4701 11.2611 24.4701C11.2611 24.4237 10.8096 24.3307 10.8096 23.959ZM11.3965 26.7936V24.2378H12.8411V24.5631H11.7125V25.3066H12.7057V25.6318H11.7125V26.4218H12.9314V26.7471L11.3965 26.7936ZM13.0668 26.7936L13.744 25.8642L13.112 24.9813H13.5634L13.9246 25.5854L14.2857 24.9813H14.7371L14.1503 25.8642L14.8274 26.84H14.376L13.9246 26.143L13.4731 26.7936H13.0668ZM14.9629 25.9107H15.2789V27.7229H14.9629V25.9107Z" fill="white"/>
<path id="Vector_4" d="M15.866 24.8884C15.3694 24.8884 14.918 25.3066 14.918 25.8643C14.918 26.3754 15.3243 26.8401 15.866 26.8401C16.3626 26.8401 16.814 26.4219 16.814 25.8643C16.814 25.3066 16.4077 24.8884 15.866 24.8884ZM15.866 26.5148C15.5048 26.5148 15.234 26.236 15.234 25.8643C15.234 25.4925 15.5048 25.2137 15.866 25.2137C16.2271 25.2137 16.498 25.4925 16.498 25.8643C16.498 26.236 16.2271 26.5148 15.866 26.5148ZM17.0397 26.7936V24.9349H17.3557V25.3531C17.4009 25.2602 17.446 25.1672 17.5363 25.0743C17.6266 24.9814 17.762 24.9349 17.8523 24.9349H17.9877V25.3066H17.8072C17.6717 25.3066 17.5363 25.3531 17.4912 25.446C17.4009 25.5855 17.3557 25.7249 17.3557 25.9107V26.7472H17.0397V26.7936ZM19.4323 26.6542C19.2518 26.7472 19.0712 26.8401 18.8906 26.7936C18.6649 26.7936 18.394 26.7007 18.2135 26.5148C17.8975 26.1431 17.8975 25.539 18.2135 25.1672C18.394 24.9814 18.6198 24.8884 18.8455 24.8884C19.0712 24.8884 19.3421 24.9814 19.4775 25.1672C19.6581 25.3531 19.7032 25.5855 19.7032 25.8178C19.7032 25.8643 19.7032 25.9107 19.7032 25.9572H18.3489C18.3489 26.0966 18.394 26.236 18.4843 26.3289C18.5746 26.4219 18.71 26.5148 18.8455 26.4684C19.0261 26.4684 19.2066 26.3754 19.3421 26.236L19.5226 26.5148L19.4323 26.6542ZM18.394 25.6784H19.3421C19.3421 25.539 19.2969 25.446 19.2066 25.3531C19.1163 25.2602 18.9809 25.2137 18.8906 25.2137C18.6198 25.2137 18.394 25.3996 18.394 25.6784ZM21.1027 25.1208L20.9221 25.3531C20.8318 25.2602 20.6512 25.2137 20.5158 25.2137C20.3352 25.2137 20.2449 25.2602 20.2449 25.3996C20.2449 25.539 20.2901 25.5855 20.3804 25.5855L20.7415 25.6784C20.8769 25.7249 20.9672 25.7713 21.1027 25.8178C21.1929 25.9107 21.2832 26.0501 21.2381 26.1895C21.2381 26.3754 21.1929 26.5613 21.0124 26.6542C20.8769 26.7472 20.6964 26.7936 20.5609 26.7936C20.3804 26.7936 20.1998 26.7472 20.0644 26.6542C19.9741 26.5613 19.9289 26.4219 19.9289 26.2825L20.1998 26.1431C20.1998 26.3289 20.3352 26.4684 20.5158 26.4684H20.5609C20.7867 26.4684 20.9221 26.3754 20.9221 26.236C20.9221 26.1431 20.8318 26.0501 20.6512 26.0037C20.4706 25.9572 20.3352 25.9107 20.1998 25.8643C20.0192 25.7713 19.9289 25.5855 19.9289 25.3996C19.9289 25.2137 20.0192 25.0743 20.1546 24.9814C20.2901 24.8884 20.4255 24.842 20.6061 24.8884C20.7415 24.8884 20.9221 24.9349 21.0575 25.0278M22.6375 25.1208L22.457 25.3531C22.3667 25.2602 22.1861 25.2137 22.0507 25.2137C21.8701 25.2137 21.7798 25.2602 21.7798 25.3996C21.7798 25.539 21.825 25.5855 21.9152 25.5855L22.2764 25.6784C22.4118 25.7249 22.5021 25.7713 22.6375 25.8178C22.7278 25.9107 22.8181 26.0501 22.773 26.1895C22.773 26.3754 22.7278 26.5613 22.5473 26.6542C22.4118 26.7472 22.2313 26.7936 22.0958 26.7936C21.9152 26.7936 21.7347 26.7472 21.5992 26.6542C21.509 26.5613 21.4638 26.4219 21.4638 26.2825L21.7347 26.1431C21.7347 26.3289 21.8701 26.4684 22.0507 26.4684H22.0958C22.3215 26.4684 22.457 26.3754 22.457 26.236C22.457 26.1431 22.3667 26.0501 22.1861 26.0037C22.0055 25.9572 21.8701 25.9107 21.7347 25.8643C21.5541 25.7713 21.4638 25.5855 21.4638 25.3996C21.4638 25.2137 21.509 25.0743 21.6895 24.9814C21.825 24.8884 21.9604 24.842 22.141 24.8884C22.2764 24.8884 22.457 24.9349 22.5924 25.0278M21.6444 12.8066C21.6444 16.4776 18.7552 19.9163 15.1437 19.9163C11.5322 19.9163 8.64302 16.5241 8.64302 12.8066H7.06299C7.06299 17.407 10.7196 21.5427 15.1437 21.5427C19.5678 21.5427 23.2244 17.3605 23.2244 12.8066H21.6444Z" fill="white"/>
</g>
</g>
</svg>
