<svg width="30" height="30" viewBox="0 0 30 30" fill="none" xmlns="http://www.w3.org/2000/svg">
<g id="_&#229;&#155;&#190;&#229;&#177;&#130;_1" clip-path="url(#clip0_24159_22999)">
<path id="Vector" d="M6.26761 25.8457C6.15794 25.7085 6.0373 25.5549 5.91118 25.3848C5.54379 25.5824 5.32994 25.9225 5.06673 26.2517C4.78159 25.9774 4.50193 25.714 4.21131 25.4287C4.50193 25.0227 4.79804 24.6442 5.29703 24.4521C5.19833 24.2711 5.10511 24.0955 5.00093 23.9254C4.97899 23.898 4.88578 23.898 4.83094 23.9145C4.50193 24.0297 4.25518 24.2711 4.01939 24.5235C3.9152 24.6332 3.8165 24.7539 3.70135 24.8801C3.45459 24.5728 3.21332 24.2766 2.93366 23.9364C3.33396 23.6292 3.7178 23.3219 4.11261 23.0202C4.15648 22.9873 4.22228 22.9763 4.27711 22.9598C4.4471 22.9104 4.57322 22.9324 4.61709 23.1299C4.63902 23.2122 4.68289 23.289 4.72127 23.3658C4.83642 23.6182 4.92964 23.6731 5.21478 23.6621C5.86183 23.6511 6.43211 23.4097 6.96401 23.0805C7.27108 22.8885 7.54525 22.6526 7.83588 22.4386C7.93458 22.3673 7.93458 22.2905 7.87426 22.1862C7.6275 21.7254 7.38623 21.259 7.2656 20.7433C7.13399 20.1946 7.21625 19.6789 7.5288 19.2235C7.89071 18.6859 8.28552 18.1701 8.66936 17.638C9.01482 17.1497 9.24512 16.6175 9.13546 16.0194C9.03675 15.4653 8.88322 14.9222 8.72968 14.3845C8.57066 13.8139 8.44454 13.2378 8.48292 12.6398C8.53776 11.7181 8.87225 10.8841 9.38221 10.116C9.49736 9.94044 9.618 9.77585 9.71122 9.56736C9.5851 9.66612 9.4535 9.7539 9.34383 9.86363C8.55969 10.6866 8.0607 11.6412 7.94006 12.7824C7.85781 13.5999 8.05521 14.368 8.26907 15.1416C8.36777 15.4982 8.43906 15.8658 8.48841 16.2389C8.54324 16.6284 8.3568 16.9576 8.13747 17.2594C7.80298 17.7202 7.44655 18.1647 7.11206 18.631C6.7666 19.1083 6.47598 19.6131 6.51436 20.2385C6.51436 20.2879 6.46501 20.3592 6.42663 20.3976C5.79603 20.9408 5.0777 21.259 4.23873 21.3139C4.18389 21.3139 4.12357 21.3249 4.03584 21.3358C4.11261 21.6211 4.18389 21.8954 4.27163 22.1972C3.49846 22.2356 3.07623 22.8611 2.49499 23.2945C2.26468 22.9214 2.05631 22.5758 1.83149 22.2082C2.28113 22.1204 2.56079 21.8186 2.86786 21.5553C3.16945 21.2974 3.50394 21.1383 3.90424 21.1548C3.92617 21.1548 3.95359 21.1438 3.99197 21.1383C3.95359 20.8914 3.92617 20.6445 3.86585 20.4086C3.85489 20.3592 3.72877 20.3099 3.652 20.3099C3.15849 20.3099 2.76368 20.5458 2.3908 20.8366C2.16598 21.0121 1.91374 21.1603 1.66699 21.3029C1.50796 21.4017 1.38733 21.3578 1.32153 21.1712C1.19541 20.853 1.05832 20.5458 0.915751 20.1946C1.61763 20.2056 2.10018 19.7941 2.62111 19.454C2.95011 19.2345 3.32299 19.1028 3.7507 19.0974V18.1043C3.30106 18.0824 2.89528 18.2195 2.51692 18.4335C2.17695 18.62 1.86987 18.8614 1.51345 19.0205C1.27218 19.1303 0.987036 19.1522 0.718347 19.2016C0.674479 19.2071 0.586744 19.1577 0.575777 19.1193C0.477075 18.7627 0.394823 18.4006 0.301604 18.0165C1.09671 18.1153 1.73827 17.7806 2.3579 17.3911C2.82948 17.0948 3.32847 16.8698 3.90424 16.8589C3.98649 16.4858 4.06874 16.1127 4.15648 15.7396C3.5862 15.6848 3.0872 15.8603 2.59917 16.1072C2.1276 16.3486 1.6615 16.601 1.17347 16.804C0.877367 16.9302 0.54836 16.9686 0.230319 16.8753C0.180968 16.8644 0.115166 16.804 0.109683 16.7546C0.0712987 16.4584 0.0548483 16.1566 0.027431 15.8384H0.460624C1.07477 15.8384 1.62312 15.608 2.15501 15.3281C2.65401 15.0648 3.13107 14.7576 3.69586 14.6588C3.93165 14.6149 4.17841 14.6204 4.41968 14.593C4.47452 14.5875 4.55128 14.56 4.56773 14.5216C4.74869 14.1486 4.92416 13.7645 5.1106 13.3585C5.01738 13.342 4.92416 13.3256 4.83094 13.3146C3.99746 13.2323 3.25719 13.5066 2.53886 13.8962C1.99599 14.1925 1.45313 14.4832 0.822533 14.5546C0.592227 14.582 0.361922 14.571 0.131617 14.5765C1.36995e-05 14.5765 0.0109806 14.4832 0.0164641 14.3954C0.0438814 13.9949 0.0548483 13.5944 0.104199 13.1939C0.224836 12.2173 0.433207 11.2572 0.740281 10.319C1.26121 8.7389 2.01793 7.28499 3.0214 5.95726C4.54032 3.94922 6.44856 2.41301 8.72968 1.35412C9.93056 0.799985 11.1863 0.421418 12.4913 0.190987C13.6374 0.00444684 14.7944 -0.0339584 15.9459 0.0263927C17.2894 0.0977168 18.6054 0.366554 19.883 0.810958C21.6048 1.4035 23.1621 2.28133 24.5604 3.43898C26.2548 4.84351 27.5818 6.53883 28.5359 8.52493C29.1336 9.76487 29.5559 11.0652 29.7752 12.4258C29.8849 13.0732 29.9178 13.7261 29.989 14.379C30.011 14.5491 29.9397 14.5875 29.7807 14.5984C29.1062 14.6314 28.4866 14.4393 27.8944 14.1376C27.2857 13.8194 26.688 13.4682 25.9916 13.3585C25.6242 13.3036 25.2623 13.3146 24.8785 13.3695C25.0814 13.8029 25.2678 14.2034 25.4707 14.6259C26.3261 14.5162 27.0554 14.9112 27.7792 15.3117C28.4263 15.6683 29.1062 15.9152 29.8629 15.8384C29.8903 15.8384 29.9287 15.8439 29.9616 15.8494C29.9397 16.1456 29.9178 16.4309 29.8958 16.7162C29.8903 16.815 29.8574 16.8753 29.7368 16.8973C29.2597 16.9686 28.8211 16.8589 28.3988 16.6559C28.004 16.4638 27.6257 16.2389 27.2364 16.0414C26.8032 15.8219 26.348 15.6957 25.8381 15.7451C25.9148 16.0908 25.9861 16.4364 26.0684 16.7766C26.0793 16.815 26.1342 16.8589 26.1726 16.8644C26.8525 16.8918 27.3954 17.2539 27.9547 17.5831C28.4811 17.8958 29.0349 18.0824 29.6929 18.0275C29.5942 18.4335 29.4955 18.823 29.4023 19.2016C28.9198 19.2619 28.525 19.0974 28.1521 18.8614C27.7353 18.5981 27.3405 18.2963 26.847 18.1866C26.6551 18.1427 26.4632 18.1208 26.2493 18.0878V19.1028C26.7977 19.1028 27.2473 19.3552 27.675 19.657C28.0808 19.9478 28.5085 20.2056 29.0788 20.1946C28.9088 20.5842 28.7608 20.9463 28.5963 21.2974C28.5853 21.3249 28.4701 21.3523 28.4263 21.3303C28.2343 21.2426 28.0369 21.1493 27.856 21.0341C27.6312 20.8859 27.4283 20.7049 27.2035 20.5568C26.9402 20.3812 26.6387 20.3099 26.3261 20.2934C26.1945 20.2879 26.1068 20.3044 26.0958 20.4799C26.0848 20.6939 26.0245 20.9024 25.9861 21.1273C26.1561 21.1493 26.3151 21.1548 26.4742 21.1932C26.7977 21.2645 27.0444 21.473 27.2857 21.6925C27.5325 21.9174 27.7902 22.1369 28.1576 22.1972C27.9382 22.5648 27.7244 22.9104 27.4996 23.2835C27.346 23.1573 27.2035 23.0531 27.0773 22.9379C26.6935 22.5703 26.2987 22.2356 25.7229 22.1917C25.8052 21.8954 25.871 21.6266 25.9532 21.3468C25.6845 21.3084 25.4268 21.281 25.1855 21.2261C24.5604 21.0944 24.023 20.7982 23.546 20.3812C23.5131 20.3538 23.4802 20.2934 23.4802 20.2495C23.5186 19.5088 23.1183 18.9547 22.7125 18.3951C22.3725 17.9287 22.0161 17.4734 21.6871 16.996C21.38 16.5516 21.4842 16.0633 21.5939 15.586C21.709 15.0922 21.8735 14.6039 21.9668 14.1047C22.2793 12.4258 21.7748 10.9993 20.5685 9.80328C20.4698 9.71001 20.3601 9.62771 20.223 9.56736C20.2943 9.66612 20.3656 9.75939 20.4314 9.85814C20.9304 10.5659 21.3142 11.3285 21.4513 12.2009C21.5774 13.0293 21.4294 13.8139 21.1881 14.6039C21.0455 15.0648 20.9304 15.5366 20.8536 16.014C20.7385 16.7053 21.0455 17.2758 21.4458 17.808C21.7419 18.2085 22.049 18.6036 22.3396 19.0096C22.5754 19.3388 22.7399 19.7063 22.7728 20.1123C22.8057 20.4964 22.7125 20.8695 22.5644 21.2261C22.4328 21.5443 22.2683 21.857 22.1148 22.1643C22.06 22.2795 22.06 22.3508 22.1642 22.4441C22.8112 23.0147 23.5295 23.4591 24.3959 23.6237C24.5714 23.6566 24.7688 23.6731 24.9443 23.6347C25.0539 23.6127 25.1636 23.503 25.2404 23.4042C25.3062 23.3219 25.35 23.2067 25.372 23.097C25.4213 22.9104 25.5529 22.883 25.6845 22.9489C25.9313 23.0641 26.178 23.1848 26.3864 23.3603C26.5948 23.5469 26.7538 23.7938 26.9567 24.0352C26.7867 24.2437 26.5454 24.5454 26.2932 24.8636C26.1397 24.6935 26.0135 24.5235 25.8545 24.3863C25.6462 24.2107 25.4158 24.0571 25.191 23.898C25.0814 23.8267 24.9991 23.8541 24.9388 23.9803C24.8675 24.1284 24.7852 24.2656 24.6975 24.4302C25.1801 24.6167 25.4816 24.9898 25.7778 25.4123C25.4926 25.6866 25.2075 25.9609 24.9388 26.2188C24.6646 25.9225 24.3959 25.6317 24.1163 25.3245C23.9572 25.5275 23.8311 25.6811 23.7215 25.8238C23.9518 26.1036 24.1766 26.3724 24.4233 26.6632C24.0395 26.943 23.6995 27.2009 23.3266 27.4697C23.2718 27.2941 23.2554 27.135 23.1786 27.0088C22.9318 26.5754 22.6796 26.1475 22.3999 25.736C22.1038 25.2916 21.7748 24.8801 21.6048 24.3644C21.5061 24.0571 21.4623 23.7499 21.5336 23.4371C21.5445 23.3933 21.5336 23.3494 21.5336 23.2616C21.1881 23.7938 21.0455 24.3424 21.2813 24.9075C21.4897 25.4178 21.7803 25.9006 22.049 26.3834C22.2793 26.7894 22.5151 27.1899 22.6193 27.6508C22.6577 27.8099 22.6412 27.9196 22.4712 27.9964C22.2574 28.0952 22.06 28.2213 21.8242 28.353C21.8022 28.2213 21.7858 28.1171 21.7693 28.0129C21.6213 27.2722 21.232 26.6358 20.9084 25.9719C20.7494 25.6537 20.6014 25.3355 20.4643 25.0118C20.2449 24.4905 20.2614 23.9693 20.5191 23.4701C20.7659 22.9982 21.04 22.5429 21.3087 22.082C21.5884 21.6047 21.8626 21.1328 21.9558 20.5732C22.0271 20.1288 21.9997 19.6899 21.7693 19.3168C21.4403 18.7901 21.0675 18.2908 20.7056 17.7806C20.4204 17.3801 20.0969 16.9851 20.0804 16.4693C20.0695 16.1127 20.1079 15.7451 20.1956 15.405C20.3382 14.8508 20.5794 14.3186 20.7165 13.759C21.1716 11.9101 20.6562 10.3519 19.236 9.09552C19.1537 9.0242 19.055 8.98031 18.9454 8.94739C19.1318 9.21622 19.3292 9.47409 19.4992 9.74841C20.3491 11.131 20.404 12.5794 19.8282 14.0717C19.6198 14.6149 19.4115 15.1581 19.3128 15.7396C19.1812 16.5187 19.3786 17.1935 19.8392 17.808C20.1682 18.2524 20.5136 18.6804 20.8207 19.1358C21.2758 19.8051 21.2758 20.5238 20.903 21.2261C20.6014 21.7912 20.2395 22.3289 19.9105 22.883C19.6089 23.3878 19.3621 23.9145 19.4005 24.529C19.4334 25.0502 19.6637 25.511 19.894 25.9664C20.1901 26.5535 20.4972 27.1295 20.7659 27.7221C20.8865 27.9909 20.9139 28.3036 20.9742 28.5944C20.9852 28.6493 20.9523 28.7535 20.9084 28.77C20.6123 28.9017 20.3053 29.0169 20.0092 29.1376C19.9598 28.7974 19.9598 28.4737 19.8556 28.1775C19.6637 27.6398 19.4224 27.1241 19.1866 26.6083C19.0112 26.2133 18.8028 25.8292 18.6164 25.4397C18.2764 24.7374 18.3312 24.0516 18.7096 23.3878C18.9892 22.905 19.2963 22.4386 19.5924 21.9668C19.8666 21.5333 20.1079 21.0835 20.1956 20.5677C20.3107 19.9203 20.1024 19.3497 19.724 18.8285C19.4553 18.4609 19.1702 18.1098 18.896 17.7477C18.2764 16.9357 18.238 16.0414 18.567 15.1142C18.7754 14.5216 19.0495 13.951 19.2689 13.364C19.8337 11.8442 19.3621 9.9569 18.1557 8.86509C18.0022 8.72793 17.8432 8.59625 17.6897 8.45909L17.6184 8.50847C17.6568 8.59077 17.6897 8.67855 17.7445 8.75536C18.1667 9.29852 18.4628 9.89655 18.6164 10.5659C18.8631 11.6358 18.6986 12.6453 18.249 13.6328C17.9858 14.2089 17.7445 14.796 17.5471 15.3995C17.2236 16.4035 17.4703 17.3142 18.1174 18.1317C18.3477 18.417 18.5725 18.7133 18.7809 19.0151C19.2799 19.7283 19.3073 20.4854 18.907 21.2371C18.6273 21.7638 18.2819 22.2521 17.9638 22.7568C17.6458 23.2616 17.3606 23.7663 17.3003 24.3753C17.251 24.8636 17.3771 25.319 17.569 25.7469C17.8322 26.345 18.1393 26.9265 18.4135 27.5246C18.6493 28.0458 18.8247 28.5889 18.8083 29.176C18.8028 29.4887 18.7973 29.4887 18.4957 29.5655C18.2435 29.6259 17.9912 29.6753 17.7335 29.7356V29.1979C17.739 28.6109 17.6074 28.0513 17.3771 27.5191C17.1139 26.9101 16.8287 26.3121 16.5436 25.714C16.1049 24.8088 16.2365 23.9638 16.7629 23.1409C17.1468 22.5374 17.5416 21.9393 17.909 21.3249C18.1009 21.0012 18.2215 20.6445 18.2325 20.2605C18.2544 19.6186 17.9529 19.1028 17.5635 18.62C17.251 18.2305 16.9274 17.8464 16.7629 17.3636C16.7136 17.221 16.6752 17.0783 16.6533 16.9302C16.6039 16.6339 16.4394 16.5132 16.1488 16.5736C15.8417 16.6449 15.5401 16.7491 15.2331 16.7656C14.8986 16.7821 14.5586 16.7162 14.2241 16.6778C14.0925 16.6614 13.9609 16.6065 13.8238 16.5736C13.588 16.5187 13.3961 16.623 13.3632 16.8644C13.281 17.4898 12.9465 17.9671 12.5791 18.4445C12.3433 18.7517 12.113 19.0699 11.943 19.4101C11.614 20.0849 11.7675 20.7488 12.1185 21.3633C12.3597 21.7912 12.6558 22.1917 12.9081 22.6142C13.1493 23.0202 13.4016 23.4207 13.588 23.8541C13.8677 24.5125 13.7141 25.1544 13.429 25.7744C13.1439 26.4053 12.8423 27.0308 12.5736 27.6727C12.3268 28.2598 12.2281 28.8797 12.2939 29.5216C12.2994 29.5765 12.2939 29.6369 12.2939 29.7301C11.9594 29.6533 11.6359 29.5984 11.3288 29.4997C11.2685 29.4832 11.2192 29.3351 11.2137 29.2473C11.1753 28.8029 11.2576 28.364 11.433 27.958C11.6798 27.3764 11.9759 26.8223 12.2172 26.2462C12.4036 25.8018 12.59 25.3464 12.6942 24.8801C12.8203 24.326 12.6449 23.7938 12.3707 23.311C12.0965 22.8336 11.7675 22.3892 11.4933 21.9064C11.285 21.5388 11.0766 21.1603 10.9285 20.7652C10.7092 20.1617 10.8298 19.5747 11.1972 19.048C11.4824 18.642 11.7894 18.2415 12.0801 17.841C12.6339 17.0619 12.7381 16.2005 12.4365 15.3117C12.2007 14.6204 11.8936 13.951 11.6195 13.2707C11.0327 11.8058 11.1972 10.4123 12.0198 9.08455C12.1075 8.9419 12.2117 8.8212 12.3049 8.68404C12.3378 8.62917 12.3433 8.56334 12.3597 8.4975C12.3049 8.51944 12.2391 8.51944 12.1952 8.55236C11.4166 9.15587 10.8956 9.92947 10.6379 10.8841C10.3363 11.9924 10.5392 13.0403 11.0108 14.0553C11.2576 14.582 11.4879 15.1197 11.592 15.6957C11.7236 16.42 11.5811 17.0783 11.1424 17.6709C10.8353 18.0824 10.5173 18.4829 10.2212 18.8944C9.95797 19.2565 9.79347 19.6625 9.77702 20.1123C9.75509 20.5568 9.87572 20.9737 10.0951 21.3578C10.4296 21.9393 10.786 22.499 11.1369 23.075C11.3727 23.4646 11.5646 23.8706 11.6085 24.3369C11.6469 24.732 11.5372 25.105 11.3727 25.4562C11.126 25.9884 10.8463 26.5096 10.5831 27.0363C10.2705 27.6672 10.0018 28.3146 10.0347 29.0443C10.0347 29.0608 10.0238 29.0772 10.0128 29.1156C9.70574 28.9895 9.39866 28.8852 9.10255 28.7426C9.0532 28.7206 9.01482 28.567 9.03675 28.4957C9.14642 28.0897 9.23964 27.6672 9.40963 27.2832C9.67832 26.6851 10.0018 26.1091 10.3034 25.533C10.7531 24.6661 10.6763 23.8267 10.1773 23.0092C9.94152 22.6197 9.68928 22.2411 9.4535 21.857C9.16836 21.3962 8.91063 20.9298 8.84483 20.3757C8.79548 19.9807 8.87225 19.6076 9.08062 19.2839C9.38769 18.8066 9.74412 18.3567 10.0786 17.8958C10.3418 17.5337 10.5941 17.1606 10.6818 16.7162C10.7915 16.1456 10.7092 15.5915 10.5337 15.0483C10.3528 14.5107 10.128 13.9785 9.97991 13.4353C9.5522 11.9101 9.86476 10.5165 10.8244 9.26012C10.9121 9.13941 11.0053 9.01871 11.0985 8.89801C11.0876 8.88704 11.0766 8.87058 11.0656 8.85412C10.8792 9.00225 10.6763 9.13941 10.5008 9.31498C9.49736 10.3135 9.04224 11.526 9.14094 12.936C9.18481 13.5835 9.40414 14.1925 9.62897 14.796C9.79347 15.2404 9.92507 15.6903 9.94701 16.1676C9.96346 16.5736 9.85927 16.9521 9.62348 17.2813C9.30544 17.7312 8.9545 18.1592 8.64743 18.62C8.43906 18.9273 8.24714 19.2565 8.12102 19.5966C7.91264 20.1508 8.00586 20.7159 8.26359 21.2316C8.53776 21.7747 8.86677 22.2905 9.16287 22.8227C9.30544 23.0805 9.44253 23.3439 9.56317 23.6127C9.80444 24.1778 9.68928 24.732 9.43705 25.2587C9.12997 25.9061 8.79548 26.537 8.50486 27.1899C8.35132 27.5355 8.26907 27.9196 8.14295 28.3091C7.91264 28.1829 7.66041 28.0568 7.42462 27.8922C7.36978 27.8538 7.35882 27.6892 7.3972 27.6069C7.55074 27.2228 7.70427 26.8388 7.89619 26.4766C8.18133 25.939 8.55969 25.4562 8.74065 24.8636C8.9216 24.2711 8.80096 23.7334 8.45551 23.2232C8.66388 24.0846 8.26359 24.7649 7.80298 25.4232C7.45203 25.9225 7.05174 26.3889 6.82692 26.9649C6.77209 27.1076 6.73918 27.2502 6.68435 27.4093C6.635 27.3874 6.59113 27.3709 6.55275 27.3435C6.28406 27.146 6.01537 26.943 5.7412 26.7455C5.63153 26.6632 5.62604 26.5864 5.70829 26.4821C5.88376 26.2736 6.0702 26.0487 6.27309 25.8018L6.26761 25.8457ZM8.03876 5.84753C8.69678 6.70342 9.23964 7.54834 9.67832 8.46458C9.80992 8.73342 9.85379 8.74439 10.128 8.6182C10.5118 8.44812 10.8902 8.27255 11.285 8.13539C12.3049 7.77877 13.3577 7.58126 14.438 7.52091C15.2824 7.47153 16.1159 7.54285 16.9494 7.68001C17.9912 7.85558 18.9837 8.18477 19.9269 8.64015C20.1572 8.74988 20.2066 8.71696 20.3217 8.4975C20.6069 7.9708 20.892 7.43312 21.2045 6.91739C21.4184 6.56077 21.6761 6.2261 21.9393 5.85302C20.892 5.92983 19.9763 6.26451 19.1373 6.91739C19.4553 6.01213 19.883 5.20013 20.3985 4.40459C19.0715 4.55273 17.92 4.99165 16.9713 5.92983C16.752 5.37021 16.5436 4.83254 16.3407 4.29486C16.3243 4.24549 16.3736 4.14673 16.423 4.10284C16.7355 3.81754 17.0645 3.53773 17.3826 3.25792C17.5087 3.14819 17.6239 3.02749 17.7664 2.89033C17.6951 2.87936 17.6622 2.86838 17.6348 2.8629C17.092 2.82449 16.5491 2.77511 16.0062 2.75317C15.8362 2.74768 15.7704 2.68184 15.7101 2.53919C15.4853 1.99603 15.2495 1.45836 15.0082 0.898741C14.9644 0.986524 14.926 1.05236 14.8986 1.1182C14.6902 1.6065 14.4709 2.09479 14.268 2.58309C14.2186 2.69282 14.1693 2.74219 14.0377 2.75317C13.6483 2.76414 13.2645 2.80254 12.8752 2.82998C12.6723 2.84644 12.4694 2.86838 12.261 2.88484C12.2501 2.90679 12.2336 2.92325 12.2226 2.93971C12.2665 2.96714 12.3159 2.9836 12.3542 3.01652C12.76 3.37862 13.1713 3.74073 13.5825 4.10284C13.6648 4.17416 13.6812 4.24 13.6374 4.34424C13.5442 4.56919 13.4674 4.79413 13.3797 5.02456C13.2645 5.32083 13.1493 5.6171 13.0232 5.93532C12.0691 4.99713 10.9121 4.5637 9.59607 4.41008C10.106 5.20562 10.5392 6.00664 10.8463 6.91739C10.0183 6.25902 9.10804 5.92434 8.03876 5.84753ZM17.8871 10.0776C17.8596 9.97884 17.8487 9.90203 17.8213 9.83071C17.6074 9.29304 17.229 8.9035 16.7355 8.62369C15.8527 8.11893 14.9095 8.03115 13.9444 8.32193C13.1603 8.55785 12.5352 9.01323 12.1952 9.7923C12.1568 9.8746 12.1459 9.96787 12.1185 10.0776C12.3652 10.0227 12.5681 9.9569 12.782 9.93495C13.0013 9.91301 13.2261 9.92398 13.4455 9.94044C14.0925 10.0008 14.4544 10.3464 14.5312 10.9829C14.5696 11.2791 14.5367 11.5809 14.427 11.8772C14.3722 11.8552 14.3393 11.8497 14.3173 11.8278C14.0596 11.6193 13.7964 11.6193 13.4893 11.7345C13.1987 11.8442 12.9026 11.8223 12.612 11.6687C12.3542 11.537 12.1349 11.6303 12.091 11.9156C12.0527 12.1789 12.0417 12.4532 12.091 12.7166C12.3049 13.962 12.919 14.9715 13.9828 15.6793C14.3228 15.9042 14.7121 16.0194 15.1234 15.981C15.6882 15.9262 16.1543 15.6519 16.5546 15.2623C17.3223 14.5162 17.7993 13.6109 17.9364 12.5465C17.9638 12.3325 17.9364 12.0966 17.8871 11.8826C17.8213 11.6193 17.6458 11.5699 17.41 11.6906C17.3223 11.74 17.2071 11.7784 17.1139 11.7784C16.8836 11.7674 16.6478 11.751 16.423 11.6906C16.1378 11.6138 16.0501 11.6358 15.924 11.8991C15.8966 11.9649 15.8691 12.0363 15.8253 12.0911C15.7704 12.157 15.6992 12.2063 15.6224 12.2832C15.3921 11.7016 15.3866 11.1529 15.5347 10.6043C15.5621 10.4946 15.6443 10.3739 15.7321 10.2971C16.1598 9.9569 16.6533 9.84168 17.1961 9.92398C17.41 9.96238 17.6238 10.0172 17.8871 10.0721V10.0776ZM29.5833 13.375C29.5175 13.3036 29.4681 13.2433 29.4133 13.1829C28.9636 12.6178 28.4811 12.0802 28.0698 11.4876C27.2638 10.319 26.7593 9.04066 26.8361 7.58674C26.8361 7.50445 26.7977 7.41666 26.7812 7.33437C26.688 7.3618 26.5783 7.37277 26.5016 7.42215C25.9806 7.8062 25.5968 8.30547 25.3446 8.89252C25.213 9.20525 25.1143 9.53993 24.9991 9.8746C23.8914 9.22171 22.7235 9.04614 21.4458 9.51798C21.5336 9.58382 21.5884 9.62771 21.6432 9.6716C21.9064 9.88557 22.1806 10.0886 22.4383 10.3135C23.1238 10.9115 23.7269 11.5919 24.2424 12.338C24.3082 12.4368 24.363 12.4642 24.4946 12.4368C24.8127 12.3819 25.1417 12.338 25.4652 12.3435C26.0958 12.3545 26.6551 12.6233 27.2199 12.8702C27.6641 13.0622 28.1137 13.2433 28.5743 13.3914C28.8978 13.4902 29.2323 13.4957 29.5778 13.364L29.5833 13.375ZM8.54324 9.51798C7.26011 9.04066 6.08665 9.23268 4.96254 9.89106C4.77062 8.89252 4.3155 8.06407 3.52588 7.43861C3.44363 7.37277 3.32847 7.35631 3.22977 7.32339C3.20784 7.42215 3.15849 7.51542 3.15849 7.60869C3.20784 8.49201 3.0214 9.33144 2.67046 10.138C2.23726 11.142 1.60118 12.0143 0.877367 12.8373C0.72383 13.0129 0.570293 13.1829 0.40579 13.3805C0.838983 13.5231 1.23379 13.4902 1.61215 13.3475C2.18243 13.1336 2.73078 12.8812 3.30106 12.6453C3.99746 12.36 4.7103 12.2173 5.45057 12.4368C5.60959 12.4862 5.68636 12.4368 5.76861 12.3106C6.31696 11.5151 6.95852 10.8073 7.69879 10.1873C7.97296 9.96238 8.24714 9.7539 8.54324 9.51249V9.51798ZM12.3433 11.1036C12.8478 10.736 13.3687 10.9335 13.9444 11.0652C13.8622 10.928 13.8293 10.8347 13.7635 10.7689C13.4071 10.4123 12.9684 10.3519 12.4968 10.4232C12.3542 10.4452 12.2172 10.511 12.1733 10.6701C12.1349 10.8402 12.1843 10.9829 12.3433 11.1036ZM17.6622 11.0981C17.9583 10.8073 17.9035 10.522 17.5306 10.4342C17.1139 10.3355 16.7136 10.3958 16.3572 10.6701C16.2256 10.7689 16.1872 10.8786 16.2694 11.0322C16.741 10.917 17.2181 10.7469 17.6677 11.0981H17.6622Z" fill="#0C7045"/>
<path id="Vector_2" d="M8.03876 5.84844C9.10255 5.93073 10.0128 6.25992 10.8518 6.90733C10.5447 5.99657 10.1115 5.19006 9.60154 4.40001C10.9231 4.54815 12.0746 4.98706 13.0287 5.92525C13.1548 5.60703 13.27 5.31076 13.3851 5.0145C13.4729 4.78406 13.5551 4.55912 13.6429 4.33417C13.6867 4.22993 13.6648 4.16409 13.588 4.09277C13.1768 3.73615 12.771 3.36855 12.3597 3.00645C12.3213 2.97353 12.272 2.95158 12.2281 2.92964C12.2391 2.90769 12.2555 2.89123 12.2665 2.87477C12.4694 2.85283 12.6723 2.83088 12.8807 2.81991C13.27 2.79248 13.6538 2.75956 14.0431 2.7431C14.1747 2.7431 14.2241 2.68823 14.2735 2.57302C14.4763 2.07924 14.6902 1.59643 14.904 1.10813C14.9315 1.04229 14.9698 0.981942 15.0137 0.888672C15.255 1.45378 15.4908 1.99145 15.7156 2.53461C15.7759 2.67726 15.8417 2.7431 16.0117 2.74858C16.5601 2.77053 17.0974 2.81991 17.6403 2.85831C17.6677 2.85831 17.7006 2.86929 17.7719 2.88575C17.6238 3.02291 17.5087 3.13812 17.3881 3.25334C17.07 3.53864 16.7465 3.81296 16.4284 4.09825C16.3791 4.14215 16.3297 4.2409 16.3462 4.29028C16.5436 4.82796 16.7575 5.36563 16.9768 5.92525C17.9254 4.99255 19.077 4.55363 20.404 4.40001C19.883 5.19555 19.4608 6.00755 19.1428 6.91281C19.9817 6.26541 20.892 5.93073 21.9448 5.84844C21.6816 6.22152 21.4239 6.55619 21.21 6.91281C20.8975 7.42854 20.6123 7.96073 20.3272 8.49291C20.2066 8.71237 20.1572 8.74529 19.9324 8.63556C18.9837 8.1747 17.9967 7.851 16.9549 7.67543C16.1269 7.53827 15.2934 7.47243 14.4434 7.51632C13.3632 7.57667 12.3104 7.7687 11.2904 8.13081C10.9011 8.26797 10.5173 8.44354 10.1334 8.61362C9.85378 8.73981 9.80991 8.73432 9.68379 8.46C9.23963 7.55473 8.69677 6.70433 8.03876 5.84844ZM13.4125 6.41903C13.4125 6.41903 13.429 6.46292 13.4345 6.48487C14.4709 6.31479 15.5072 6.30381 16.5381 6.48487C16.5491 6.46292 16.5601 6.44098 16.5765 6.41903C16.0501 6.01303 15.5237 5.60703 14.9918 5.20103C14.4654 5.60703 13.939 6.01303 13.4071 6.41354L13.4125 6.41903Z" fill="white"/>
<path id="Vector_3" d="M17.887 10.0847C17.6238 10.0298 17.41 9.96944 17.1961 9.93652C16.6587 9.85423 16.1597 9.97493 15.732 10.3096C15.6443 10.3809 15.5675 10.5016 15.5346 10.6168C15.3866 11.1655 15.3921 11.7141 15.6224 12.2957C15.7046 12.2244 15.7704 12.1695 15.8253 12.1037C15.8691 12.0488 15.8911 11.9775 15.924 11.9117C16.0556 11.6428 16.1378 11.6264 16.423 11.7032C16.6478 11.7635 16.8836 11.78 17.1139 11.7909C17.2126 11.7964 17.3222 11.7525 17.41 11.7032C17.6512 11.577 17.8267 11.6318 17.887 11.8952C17.9364 12.1092 17.9638 12.3396 17.9364 12.5591C17.7993 13.6289 17.3222 14.5287 16.5546 15.2749C16.1543 15.6644 15.6882 15.9387 15.1234 15.9936C14.7121 16.032 14.3228 15.9168 13.9828 15.6863C12.919 14.9786 12.3049 13.9691 12.091 12.7236C12.0472 12.4603 12.0526 12.186 12.091 11.9226C12.1349 11.6428 12.3542 11.5495 12.612 11.6757C12.8971 11.8239 13.1987 11.8458 13.4893 11.7416C13.7964 11.6264 14.0596 11.6264 14.3173 11.8348C14.3392 11.8568 14.3721 11.8623 14.427 11.8842C14.5366 11.5879 14.5695 11.2862 14.5312 10.9899C14.4544 10.3535 14.0925 10.0078 13.4454 9.9475C13.2261 9.92555 13.0013 9.92006 12.7819 9.94201C12.5736 9.96396 12.3652 10.0298 12.1184 10.0847C12.1459 9.98041 12.1568 9.88166 12.1952 9.79936C12.5352 9.02028 13.1603 8.56491 13.9444 8.3235C14.9095 8.02723 15.8527 8.11502 16.7355 8.62526C17.229 8.90507 17.6074 9.30009 17.8212 9.83228C17.8487 9.9036 17.8651 9.98041 17.887 10.0847ZM16.1926 13.9416C15.425 14.0239 14.6902 14.0788 13.9609 13.9416C13.9225 13.9362 13.8786 13.9636 13.8348 13.98C14.6134 15.1432 15.4469 15.0225 16.1872 13.9416H16.1926ZM14.6518 12.9815C14.6518 12.9815 14.6408 12.9376 14.6408 12.9157C14.5366 12.9651 14.427 13.0035 14.3283 13.0583C14.3118 13.0693 14.3283 13.1955 14.3557 13.2065C14.734 13.382 15.1179 13.5027 15.5127 13.2613C15.584 13.2174 15.6553 13.1735 15.732 13.1242C15.6498 13.0693 15.573 13.0035 15.4853 12.9541C15.4469 12.9321 15.3975 12.9321 15.3482 12.9376C15.1124 12.9431 14.8821 12.9596 14.6518 12.976V12.9815ZM29.5833 13.3765C29.2378 13.5082 28.8978 13.5082 28.5798 13.404C28.1192 13.2558 27.6695 13.0748 27.2254 12.8828C26.6606 12.6359 26.1013 12.3615 25.4707 12.3561C25.1471 12.3561 24.8181 12.3945 24.5001 12.4493C24.3685 12.4713 24.3137 12.4493 24.2479 12.3506C23.7269 11.5989 23.1292 10.9241 22.4438 10.3261C22.1861 10.1011 21.9174 9.89263 21.6487 9.68415C21.5939 9.64025 21.539 9.59636 21.4513 9.53052C22.7289 9.0532 23.8969 9.23426 25.0046 9.88714C25.1197 9.54698 25.2184 9.2178 25.35 8.90507C25.6023 8.31253 25.9861 7.81875 26.507 7.42921C26.5783 7.37434 26.6935 7.36886 26.7867 7.34142C26.8086 7.42372 26.8525 7.5115 26.8415 7.5938C26.7593 9.0532 27.2692 10.3261 28.0753 11.4947C28.4811 12.0872 28.9691 12.6304 29.4188 13.19C29.4626 13.2558 29.5175 13.3107 29.5833 13.382V13.3765ZM8.54322 9.52504C8.24163 9.76644 7.96746 9.97493 7.70425 10.1999C6.9585 10.8198 6.32242 11.5276 5.77408 12.3231C5.69183 12.4493 5.61506 12.4932 5.45604 12.4493C4.71577 12.2299 3.99744 12.3725 3.30652 12.6578C2.74172 12.8882 2.1879 13.1461 1.61762 13.3601C1.23926 13.5027 0.838965 13.5356 0.411255 13.393C0.581242 13.201 0.729295 13.0254 0.882832 12.8498C1.60117 12.0269 2.23725 11.1545 2.67592 10.1505C3.02138 9.34398 3.20782 8.50456 3.16395 7.62123C3.16395 7.52796 3.20782 7.42921 3.23524 7.33594C3.33394 7.37434 3.45457 7.3908 3.53134 7.45115C4.32644 8.07661 4.77609 8.90507 4.96801 9.9036C6.08663 9.24523 7.26009 9.05869 8.54322 9.53052V9.52504Z" fill="white"/>
<path id="Vector_4" d="M12.3433 11.1104C12.1898 10.9897 12.1349 10.8471 12.1733 10.677C12.2117 10.5124 12.3488 10.4466 12.4968 10.4301C12.9684 10.3588 13.4126 10.4246 13.7635 10.7757C13.8293 10.8416 13.8622 10.9348 13.9445 11.072C13.3632 10.9403 12.8423 10.7428 12.3433 11.1104ZM17.6622 11.1049C17.2181 10.7483 16.741 10.9239 16.264 11.0336C16.1872 10.8855 16.2256 10.7703 16.3517 10.6715C16.7081 10.4027 17.1029 10.3423 17.5252 10.4356C17.9035 10.5234 17.9584 10.8087 17.6622 11.0994V11.1049Z" fill="white"/>
<path id="Vector_5" d="M13.4125 6.41917C13.9389 6.01866 14.4654 5.61266 14.9973 5.20117C15.5237 5.60717 16.0501 6.01317 16.582 6.41917C16.571 6.44111 16.56 6.46306 16.5436 6.48501C15.5072 6.29847 14.4708 6.31492 13.44 6.48501C13.429 6.46855 13.4235 6.4466 13.4125 6.42465V6.41917ZM16.1927 13.9411C15.4469 15.0219 14.6134 15.1426 13.8402 13.9795C13.8841 13.9685 13.928 13.9356 13.9664 13.9411C14.6902 14.0728 15.425 14.0234 16.1981 13.9411H16.1927ZM14.6518 12.981C14.8821 12.97 15.1124 12.9535 15.3427 12.9426C15.3921 12.9426 15.4414 12.9426 15.4798 12.959C15.5675 13.0084 15.6443 13.0688 15.7266 13.1291C15.6553 13.1785 15.584 13.2169 15.5072 13.2663C15.1069 13.5132 14.7231 13.3925 14.3502 13.2114C14.3228 13.2004 14.3063 13.0688 14.3228 13.0633C14.4215 13.0029 14.5312 12.9645 14.6353 12.9206C14.6408 12.9426 14.6463 12.959 14.6518 12.9865V12.981Z" fill="#0C7045"/>
<path id="Vector_6" d="M24.1272 25.3593C23.9682 25.5623 23.8421 25.716 23.7324 25.8586C23.9627 26.1384 24.182 26.4018 24.4288 26.6925C24.6043 26.5499 24.7797 26.4018 24.9497 26.2481C24.6701 25.9519 24.4069 25.6611 24.1272 25.3593ZM2.86235 21.5737C3.16394 21.3158 3.49843 21.1567 3.89872 21.1732C3.92065 21.1732 3.94807 21.1622 3.98645 21.1567C3.94807 20.9098 3.92065 20.6629 3.86034 20.427C3.84937 20.3776 3.72325 20.3282 3.64648 20.3282C3.15297 20.3282 2.75816 20.5642 2.38528 20.8549C2.16046 21.0305 1.90822 21.1786 1.66147 21.3213C1.54083 21.3926 1.44761 21.3871 1.37633 21.2993C1.35439 21.2719 1.49696 21.6176 1.82597 22.2211C2.27562 22.1223 2.55527 21.826 2.86235 21.5627V21.5737ZM25.8655 24.4211C25.6571 24.2456 25.4268 24.092 25.202 23.9329C25.0923 23.8615 25.01 23.889 24.9497 24.0151C24.8784 24.1633 24.7962 24.3004 24.7084 24.465C25.1855 24.6516 25.4871 25.0192 25.7887 25.4416C25.9642 25.2606 26.1341 25.074 26.2986 24.8875C26.1451 24.7174 26.019 24.5473 25.8655 24.4211ZM2.35238 17.4094C2.82396 17.1132 3.32296 16.8882 3.89872 16.8773C3.98097 16.5042 4.06322 16.1311 4.15096 15.758C3.58068 15.7032 3.08168 15.8787 2.59366 16.1256C2.12208 16.367 1.65598 16.6194 1.16796 16.8279C0.87185 16.9541 0.542843 16.9925 0.224802 16.8992C0.186418 16.8882 0.131584 16.8443 0.10965 16.8004C0.159001 17.2174 0.224802 17.6289 0.307054 18.0349C1.09119 18.1337 1.72727 17.799 2.35238 17.4094ZM2.61559 19.4724C2.9446 19.2529 3.31747 19.1212 3.74518 19.1157V18.1227C3.29554 18.1007 2.88976 18.2379 2.5114 18.4519C2.17143 18.6384 1.86436 18.8798 1.50793 19.0389C1.26666 19.1487 0.98152 19.1706 0.71283 19.22C0.668962 19.2255 0.581227 19.1761 0.57026 19.1377C0.674446 19.5053 0.789599 19.8564 0.915718 20.2075C1.6176 20.2185 2.09466 19.807 2.61559 19.4669V19.4724ZM29.7532 16.9102C29.2762 16.9815 28.8375 16.8718 28.4153 16.6688C28.0205 16.4767 27.6421 16.2518 27.2528 16.0488C26.8196 15.8293 26.3644 15.7032 25.8545 15.7525C25.9313 16.0982 26.0025 16.4438 26.0848 16.784C26.0958 16.8224 26.1506 16.8663 26.189 16.8718C26.8689 16.8992 27.4118 17.2613 27.9711 17.5905C28.492 17.8977 29.0349 18.0843 29.6819 18.0349C29.7642 17.6454 29.8245 17.2503 29.8739 16.8498C29.8519 16.8773 29.8135 16.8992 29.7587 16.9047L29.7532 16.9102ZM28.163 18.8743C27.7463 18.611 27.3515 18.3092 26.858 18.1995C26.666 18.1556 26.4741 18.1337 26.2603 18.1007V19.1212C26.8086 19.1212 27.2583 19.3736 27.686 19.6754C28.0863 19.9607 28.5085 20.213 29.0623 20.213C29.1829 19.8838 29.2926 19.5547 29.3858 19.22C28.9197 19.2694 28.5304 19.1048 28.163 18.8743ZM0.0219144 15.8568H0.444141C1.05829 15.8568 1.60663 15.6263 2.13853 15.3465C2.63752 15.0832 3.11458 14.7759 3.67938 14.6772C3.91517 14.6333 4.16193 14.6388 4.4032 14.6113C4.45803 14.6059 4.5348 14.5784 4.55125 14.54C4.73221 14.1669 4.90768 13.7829 5.09411 13.3769C5.00089 13.3604 4.90768 13.344 4.81446 13.333C3.98097 13.2507 3.2407 13.525 2.52237 13.9146C1.97951 14.2108 1.43665 14.5016 0.806049 14.5784C0.575744 14.6059 0.345438 14.5949 0.115133 14.6004C0.0383648 14.6004 0.00546405 14.5729 -1.94123e-05 14.529C-0.00550287 14.6991 -0.0109863 14.8747 -0.0109863 15.0503C-0.0109863 15.3246 -1.94123e-05 15.5989 0.0109475 15.8677L0.0219144 15.8568ZM29.7861 14.6059C29.1117 14.6388 28.492 14.4468 27.8998 14.1395C27.2912 13.8213 26.6935 13.4702 25.9971 13.3604C25.6297 13.3056 25.2678 13.3165 24.8839 13.3714C25.0868 13.8048 25.2732 14.2053 25.4761 14.6278C26.3315 14.5181 27.0608 14.9131 27.7847 15.3136C28.4317 15.6702 29.1117 15.9171 29.8684 15.8403C29.8903 15.8403 29.9177 15.8403 29.9451 15.8513C29.9561 15.5824 29.9671 15.3136 29.9671 15.0393C29.9671 14.8692 29.9671 14.7101 29.9616 14.5455C29.9232 14.5839 29.8629 14.6004 29.7752 14.6004L29.7861 14.6059ZM28.4372 21.3487C28.2453 21.2609 28.0479 21.1677 27.8669 21.0525C27.6421 20.9043 27.4392 20.7233 27.2144 20.5751C26.9512 20.3996 26.6496 20.3282 26.337 20.3118C26.2054 20.3063 26.1177 20.3228 26.1067 20.4983C26.0958 20.7123 26.0354 20.9208 25.9971 21.1457C26.167 21.1677 26.3261 21.1732 26.4851 21.2116C26.8086 21.2829 27.0554 21.4914 27.2966 21.7108C27.5434 21.9303 27.7901 22.1443 28.1466 22.2156C28.3056 21.9248 28.4536 21.6285 28.5907 21.3268C28.5688 21.3487 28.4756 21.3652 28.4372 21.3487Z" fill="white"/>
<path id="Vector_7" d="M27.0938 22.961C26.7099 22.5934 26.3151 22.2588 25.7394 22.2149C25.8216 21.9186 25.8874 21.6498 25.9697 21.37C25.701 21.3315 25.4432 21.3041 25.202 21.2493C24.5769 21.1176 24.0395 20.8213 23.5624 20.4043C23.5295 20.3769 23.4966 20.3166 23.4966 20.2727C23.535 19.532 23.1347 18.9779 22.7289 18.4182C22.389 17.9519 22.0325 17.4965 21.7035 17.0192C21.3965 16.5748 21.5006 16.0865 21.6103 15.6092C21.7255 15.1154 21.89 14.6271 21.9832 14.1278C22.2957 12.449 21.7913 11.0225 20.5849 9.82643C20.4862 9.73316 20.3765 9.65086 20.2394 9.59051C20.3107 9.68927 20.382 9.78254 20.4478 9.88129C20.9468 10.589 21.3307 11.3517 21.4677 12.224C21.5939 13.0525 21.4458 13.8425 21.2045 14.6271C21.062 15.088 20.9468 15.5598 20.87 16.0371C20.7549 16.7284 21.062 17.299 21.4623 17.8312C21.7584 18.2317 22.0654 18.6267 22.3561 19.0327C22.5918 19.3619 22.7564 19.7295 22.7893 20.1355C22.8222 20.5196 22.7289 20.8981 22.5809 21.2493C22.4493 21.5675 22.2848 21.8802 22.1312 22.1874C22.0764 22.3027 22.0764 22.374 22.1806 22.4672C22.8276 23.0378 23.546 23.4822 24.4124 23.6468C24.5878 23.6798 24.7852 23.6962 24.9607 23.6578C25.0704 23.6359 25.18 23.5261 25.2568 23.4274C25.3226 23.3451 25.3665 23.2299 25.3884 23.1201C25.4378 22.9336 25.5694 22.9062 25.701 22.972C25.9477 23.0872 26.1945 23.2079 26.4029 23.389C26.6112 23.57 26.7702 23.8169 26.9676 24.0638C27.1541 23.8169 27.335 23.5591 27.505 23.3012C27.3515 23.175 27.2144 23.0762 27.0938 22.961ZM6.81045 27.0265C6.75562 27.1691 6.72272 27.3118 6.66788 27.4709C6.90367 27.63 7.15043 27.7836 7.39718 27.9318C7.3588 27.8769 7.34783 27.7343 7.38073 27.6629C7.53427 27.2789 7.68781 26.8948 7.87973 26.5327C8.16487 25.995 8.54323 25.5067 8.72418 24.9197C8.90514 24.3272 8.7845 23.7895 8.43904 23.2792C8.64741 24.1406 8.24712 24.8209 7.78651 25.4793C7.43557 25.9841 7.03528 26.4504 6.81045 27.0265ZM5.29154 24.4698C5.19283 24.2888 5.09962 24.1132 4.99543 23.9431C4.9735 23.9157 4.88028 23.9157 4.82544 23.9321C4.49644 24.0473 4.24968 24.2888 4.01389 24.5411C3.91519 24.6509 3.82197 24.7551 3.7123 24.8813C3.8768 25.0678 4.04131 25.2544 4.21678 25.4299C4.50192 25.0294 4.79803 24.6618 5.28605 24.4698H5.29154ZM5.69183 26.5492C5.87827 26.3297 6.05922 26.1048 6.26211 25.8579C6.15244 25.7207 6.0318 25.5671 5.90568 25.397C5.54926 25.589 5.3354 25.9237 5.07768 26.2419C5.26412 26.4065 5.45056 26.5656 5.64796 26.7193C5.62054 26.6644 5.63699 26.604 5.69183 26.5437V26.5492ZM2.95558 23.9376C3.34491 23.6304 3.72875 23.3341 4.11259 23.0378C4.15646 23.0049 4.22226 22.9939 4.2771 22.9775C4.44708 22.9281 4.5732 22.9501 4.61707 23.1476C4.639 23.2299 4.68287 23.3067 4.72126 23.3835C4.83641 23.6359 4.92963 23.6907 5.21477 23.6798C5.85633 23.6688 6.4321 23.4274 6.96399 23.0982C7.27106 22.9062 7.54524 22.6702 7.83586 22.4563C7.93456 22.385 7.93456 22.3081 7.87424 22.2039C7.62749 21.743 7.38622 21.2767 7.26558 20.761C7.13398 20.2123 7.21623 19.6966 7.52879 19.2357C7.8907 18.698 8.2855 18.1823 8.66935 17.6501C9.0148 17.1618 9.24511 16.6296 9.13544 16.0316C9.03674 15.4775 8.8832 14.9343 8.72966 14.3967C8.57064 13.8261 8.44452 13.2445 8.48291 12.652C8.53774 11.7302 8.87223 10.8963 9.3822 10.1282C9.49735 9.95262 9.61798 9.78802 9.7112 9.57954C9.58508 9.67829 9.45348 9.76608 9.34381 9.87581C8.55968 10.6988 8.06068 11.6534 7.94005 12.7946C7.85779 13.6121 8.0552 14.3802 8.26905 15.1538C8.36776 15.5104 8.43904 15.878 8.48839 16.2511C8.54323 16.6406 8.35679 16.9698 8.13745 17.2716C7.80296 17.7324 7.44654 18.1823 7.11204 18.6432C6.76659 19.1205 6.47596 19.6253 6.51435 20.2507C6.51435 20.3001 6.465 20.3714 6.42661 20.4098C5.79601 20.953 5.07768 21.2712 4.23871 21.3261C4.18388 21.3261 4.12356 21.337 4.03582 21.348C4.11259 21.6333 4.18388 21.9131 4.27161 22.2149C3.50941 22.2533 3.08719 22.8623 2.51691 23.2957C2.65948 23.5152 2.80753 23.7291 2.96107 23.9376H2.95558ZM12.0746 17.886C12.6284 17.107 12.7326 16.2456 12.431 15.3568C12.1952 14.6655 11.8881 13.9961 11.614 13.3158C11.0272 11.8509 11.1917 10.4574 12.0143 9.12416C12.102 8.98151 12.2062 8.86081 12.2994 8.72365C12.3323 8.66878 12.3378 8.60295 12.3542 8.53711C12.2994 8.55906 12.2336 8.55905 12.1897 8.59197C11.4111 9.19549 10.8901 9.96908 10.6324 10.9237C10.3308 12.032 10.5337 13.0799 11.0053 14.1004C11.2521 14.6271 11.4824 15.1648 11.5865 15.7463C11.7181 16.4705 11.5756 17.1289 11.1369 17.7215C10.8298 18.1329 10.5118 18.5335 10.2157 18.9449C9.95248 19.307 9.78797 19.7185 9.77152 20.1629C9.74959 20.6073 9.87022 21.0243 10.0896 21.4084C10.4241 21.9899 10.7805 22.555 11.1314 23.1256C11.3672 23.5152 11.5591 23.9212 11.603 24.3875C11.6414 24.7825 11.5317 25.1556 11.3672 25.5068C11.1205 26.0389 10.8408 26.5602 10.5776 27.0869C10.265 27.7178 9.99634 28.3707 10.0292 29.0949C10.0292 29.1059 10.0238 29.1223 10.0183 29.1443C10.435 29.2924 10.8627 29.4241 11.3014 29.5338C11.2521 29.4954 11.2137 29.3692 11.2082 29.2924C11.1698 28.848 11.2521 28.4091 11.4275 28.0031C11.6743 27.4215 11.9704 26.8674 12.2117 26.2858C12.3981 25.8414 12.5845 25.386 12.6887 24.9197C12.8148 24.3656 12.6394 23.8334 12.3652 23.3506C12.091 22.8732 11.762 22.4234 11.4878 21.946C11.2795 21.5784 11.0711 21.1999 10.923 20.8048C10.7037 20.2013 10.8243 19.6143 11.1917 19.0876C11.4769 18.6816 11.7894 18.292 12.0746 17.8806V17.886Z" fill="white"/>
<path id="Vector_8" d="M14.9973 30C15.9295 30 16.8452 29.9122 17.7335 29.7531V29.2428C17.739 28.6558 17.6074 28.0962 17.3771 27.564C17.1139 26.955 16.8288 26.3569 16.5436 25.7589C16.1049 24.8537 16.2365 24.0087 16.763 23.1858C17.1468 22.5823 17.5416 21.9842 17.909 21.3697C18.1009 21.046 18.2216 20.6894 18.2325 20.3054C18.2545 19.6635 17.9529 19.1477 17.5635 18.6649C17.251 18.2754 16.9275 17.8913 16.763 17.4085C16.7136 17.2659 16.6752 17.1232 16.6533 16.9751C16.6039 16.6788 16.4394 16.5581 16.1488 16.6185C15.8417 16.6898 15.5401 16.794 15.2331 16.8105C14.8986 16.827 14.5586 16.7611 14.2241 16.7227C14.0925 16.7062 13.9609 16.6514 13.8238 16.6185C13.588 16.5636 13.3961 16.6678 13.3632 16.9092C13.281 17.5347 12.9465 18.012 12.5791 18.4948C12.3433 18.8021 12.113 19.1203 11.943 19.4605C11.614 20.1353 11.7675 20.7992 12.1185 21.4136C12.3597 21.8416 12.6558 22.2421 12.9081 22.6646C13.1494 23.0706 13.4016 23.4711 13.588 23.9045C13.8677 24.5629 13.7141 25.2048 13.429 25.8248C13.1439 26.4557 12.8423 27.0812 12.5736 27.7231C12.3268 28.3101 12.2281 28.9301 12.2939 29.5775C12.2939 29.6324 12.2939 29.6817 12.2939 29.7586C13.1713 29.9067 14.0761 29.9945 15.0028 29.9945L14.9973 30ZM20.7165 13.782C21.1717 11.9275 20.6562 10.3749 19.236 9.11298C19.1537 9.04165 19.055 8.99776 18.9454 8.96484C19.1318 9.23368 19.3292 9.49154 19.4992 9.76587C20.3491 11.1485 20.404 12.5969 19.8282 14.0892C19.6198 14.6324 19.4115 15.1755 19.3128 15.7571C19.1812 16.5362 19.3786 17.211 19.8392 17.831C20.1682 18.2754 20.5136 18.7033 20.8207 19.1587C21.2758 19.828 21.2758 20.5468 20.903 21.249C20.6014 21.8196 20.2395 22.3518 19.9105 22.906C19.6089 23.4107 19.3621 23.9374 19.4005 24.5519C19.4334 25.0731 19.6637 25.534 19.894 25.9893C20.1901 26.5764 20.4972 27.1525 20.7659 27.745C20.8865 28.0139 20.9139 28.3266 20.9742 28.6174C20.9797 28.6558 20.9633 28.7271 20.9359 28.7655C21.2375 28.6338 21.5336 28.4967 21.8242 28.3485C21.8023 28.2333 21.7913 28.1346 21.7694 28.0358C21.6213 27.2951 21.232 26.6587 20.9084 25.9948C20.7494 25.6766 20.6014 25.3584 20.4643 25.0347C20.2449 24.5135 20.2614 23.9923 20.5191 23.493C20.7659 23.0212 21.0401 22.5658 21.3087 22.1049C21.5884 21.6276 21.8626 21.1558 21.9558 20.5962C22.0271 20.1518 21.9997 19.7128 21.7694 19.3343C21.4403 18.8076 21.0675 18.3083 20.7056 17.7981C20.4204 17.3975 20.0969 17.0025 20.0804 16.4868C20.0695 16.1302 20.1079 15.7626 20.1956 15.4169C20.3382 14.8683 20.574 14.3361 20.711 13.7765L20.7165 13.782Z" fill="white"/>
<path id="Vector_9" d="M17.5471 15.4341C17.2235 16.4437 17.4703 17.3489 18.1173 18.1719C18.3477 18.4572 18.5725 18.7535 18.7808 19.0552C19.2798 19.7685 19.3073 20.5256 18.907 21.2772C18.6273 21.8039 18.2818 22.2977 17.9638 22.797C17.6458 23.2963 17.3606 23.8065 17.3003 24.4155C17.251 24.9038 17.3771 25.3592 17.569 25.7871C17.8322 26.3851 18.1393 26.9667 18.4135 27.5647C18.6547 28.0859 18.8247 28.6291 18.8083 29.2162C18.8083 29.4027 18.8028 29.4795 18.7315 29.5289C19.1647 29.4192 19.5924 29.2875 20.0091 29.1393C19.9598 28.8102 19.9598 28.4919 19.8611 28.2066C19.6692 27.669 19.4279 27.1532 19.1921 26.6375C19.0166 26.2425 18.8083 25.8584 18.6218 25.4689C18.2818 24.7666 18.3367 24.0753 18.715 23.417C18.9947 22.9341 19.3018 22.4678 19.5979 21.996C19.8721 21.5625 20.1133 21.1126 20.2011 20.5969C20.3162 19.9495 20.1078 19.3734 19.7295 18.8577C19.4608 18.4901 19.1757 18.139 18.9015 17.7769C18.2818 16.9649 18.2435 16.0706 18.5725 15.1434C18.7808 14.5508 19.055 13.9802 19.2744 13.3932C19.8392 11.8679 19.3676 9.98609 18.1612 8.89428C18.0077 8.75712 17.8487 8.62544 17.6951 8.48828L17.6238 8.53766C17.6622 8.61996 17.6951 8.70774 17.75 8.78455C18.1722 9.32771 18.4683 9.92574 18.6218 10.6006C18.8686 11.6704 18.7041 12.6799 18.2544 13.673C17.9912 14.2491 17.7445 14.8361 17.5525 15.4396L17.5471 15.4341ZM9.03126 28.5578C9.14092 28.1518 9.23414 27.7293 9.40413 27.3453C9.67282 26.7472 9.99635 26.1712 10.2979 25.5896C10.7476 24.7227 10.6708 23.8833 10.1718 23.0603C9.93603 22.6708 9.68379 22.2922 9.448 21.9082C9.16286 21.4473 8.90514 20.981 8.83934 20.4268C8.78998 20.0318 8.86675 19.6587 9.07512 19.335C9.3822 18.8577 9.73862 18.4078 10.0731 17.9415C10.3363 17.5794 10.5886 17.2063 10.6763 16.7619C10.786 16.1913 10.7037 15.6371 10.5282 15.094C10.3473 14.5563 10.1225 14.0241 9.97441 13.481C9.5467 11.9557 9.85926 10.5622 10.8189 9.30576C10.9066 9.18506 10.9998 9.06436 11.093 8.94366C11.0821 8.93268 11.0711 8.91623 11.0601 8.89977C10.8737 9.0479 10.6708 9.18506 10.4953 9.36063C9.49187 10.3647 9.03674 11.5717 9.13544 12.9872C9.17931 13.6346 9.39865 14.2436 9.62347 14.8471C9.78797 15.2915 9.91958 15.7414 9.94151 16.2187C9.95796 16.6247 9.85378 17.0033 9.61799 17.3325C9.29995 17.7824 8.949 18.2103 8.64193 18.6712C8.43356 18.9784 8.24164 19.3076 8.11552 19.6532C7.90715 20.2074 8.00037 20.7725 8.25809 21.2882C8.53226 21.8314 8.86127 22.3471 9.15738 22.8793C9.29995 23.1371 9.43703 23.4005 9.55767 23.6748C9.79894 24.2399 9.68379 24.7941 9.43155 25.3208C9.12448 25.9682 8.78998 26.5991 8.49936 27.252C8.35131 27.5922 8.26357 27.9652 8.14294 28.3493C8.45001 28.5084 8.75708 28.6565 9.07512 28.7937C9.03674 28.7443 9.02029 28.6346 9.03674 28.5742L9.03126 28.5578ZM23.3266 27.4715C23.2773 27.3123 23.2553 27.1587 23.1841 27.038C22.9373 26.6046 22.6851 26.1766 22.4054 25.7652C22.1093 25.3208 21.7803 24.9093 21.6103 24.3935C21.5116 24.0863 21.4677 23.7791 21.539 23.4663C21.55 23.4224 21.539 23.3786 21.539 23.2908C21.1936 23.823 21.051 24.3716 21.2868 24.9367C21.4952 25.447 21.7858 25.9298 22.0545 26.4181C22.2848 26.8241 22.5206 27.2246 22.6247 27.6854C22.6467 27.7842 22.6522 27.861 22.6138 27.9268C22.8605 27.7787 23.0963 27.6306 23.3321 27.4769L23.3266 27.4715Z" fill="white"/>
</g>
<defs>
<clipPath id="clip0_24159_22999">
<rect width="30" height="30" fill="white"/>
</clipPath>
</defs>
</svg>
