<svg width="30" height="30" viewBox="0 0 30 30" fill="none" xmlns="http://www.w3.org/2000/svg">
<rect width="30" height="30" rx="6" fill="black"/>
<g clip-path="url(#clip0_23676_93157)">
<path d="M4.98757 1.3457H25.0125C27.4397 1.3457 28.6533 2.55933 28.6533 4.98659V25.0115C28.6533 27.4387 27.4397 28.6524 25.0125 28.6524H4.98757C2.56031 28.6524 1.34668 27.4387 1.34668 25.0115V4.98659C1.34668 2.55933 2.56031 1.3457 4.98757 1.3457Z" fill="#040000"/>
<path d="M22.9099 20.7663C20.7663 22.3501 17.6579 23.1921 15 23.1921C11.4241 23.21 7.9703 21.8921 5.31528 19.4966C5.11503 19.3145 5.31528 19.0688 5.53374 19.2099C8.47874 20.894 11.8123 21.7803 15.2048 21.7812C17.744 21.7692 20.2557 21.2557 22.5959 20.2703C22.9599 20.1155 23.2649 20.5069 22.9099 20.7663Z" fill="#F29419"/>
<path d="M23.8019 19.7522C23.5288 19.4018 21.9814 19.5838 21.2988 19.6703C21.0894 19.6976 21.0576 19.511 21.2442 19.379C22.473 18.5188 24.48 18.7646 24.7167 19.0559C24.9533 19.3471 24.6529 21.3633 23.5061 22.3236C23.3286 22.4738 23.1602 22.3918 23.2375 22.1961C23.497 21.5499 24.0749 20.1026 23.8019 19.7522Z" fill="#F29419"/>
<path d="M20.5296 17.9302C20.0973 17.334 19.6194 16.847 19.6194 15.7366V12.0502C19.6194 10.4891 19.7286 9.05553 18.5818 7.98147C17.6715 7.11221 16.1697 6.80273 15.0182 6.80273C12.7654 6.80273 10.2578 7.64469 9.72984 10.4436C9.72352 10.4981 9.72808 10.5532 9.74323 10.6059C9.75839 10.6586 9.78386 10.7077 9.81815 10.7505C9.85244 10.7932 9.89487 10.8287 9.94299 10.855C9.99111 10.8812 10.044 10.8976 10.0985 10.9033L12.374 11.1536C12.483 11.1338 12.5824 11.0783 12.6565 10.996C12.7306 10.9136 12.7754 10.809 12.7836 10.6985C12.8784 10.2734 13.1225 9.89632 13.4715 9.63578C13.8206 9.37525 14.2515 9.2485 14.686 9.27854C14.9407 9.26607 15.1945 9.31544 15.426 9.42243C15.6574 9.52943 15.8595 9.69086 16.0149 9.89294C16.3472 10.3799 16.3016 11.0444 16.3016 11.6087V11.9136C14.9363 12.0684 13.1159 12.1685 11.8552 12.7328C11.089 13.0399 10.4359 13.5756 9.9848 14.2669C9.53369 14.9582 9.30642 15.7717 9.33389 16.5967C9.33389 19.0543 10.8813 20.2831 12.8747 20.2831C14.554 20.2831 15.4779 19.8872 16.775 18.5628C17.1308 19.1662 17.5935 19.6997 18.1403 20.1375C18.228 20.1868 18.3287 20.2079 18.4288 20.1982C18.5289 20.1884 18.6236 20.1482 18.7001 20.0829C19.1552 19.6642 20.029 18.9178 20.5205 18.5127C20.5899 18.432 20.6288 18.3296 20.6305 18.2231C20.6322 18.1167 20.5965 18.013 20.5296 17.9302ZM15.8738 16.8698C15.7223 17.1794 15.4902 17.4425 15.2019 17.6314C14.9136 17.8204 14.5798 17.9283 14.2354 17.9439C13.3252 17.9439 12.7973 17.2521 12.7973 16.2281C12.7973 14.2119 14.6177 13.8479 16.3153 13.8479V14.3576C16.3153 15.2815 16.3381 16.0506 15.8738 16.8698Z" fill="white"/>
</g>
<defs>
<clipPath id="clip0_23676_93157">
<rect width="24" height="24" fill="white" transform="translate(3 3)"/>
</clipPath>
</defs>
</svg>
