<svg width="30" height="30" viewBox="0 0 30 30" fill="none" xmlns="http://www.w3.org/2000/svg">
<rect width="30" height="30" rx="6" fill="white"/>
<g clip-path="url(#clip0_23676_93169)">
<path d="M4.2958 15.4596C4.31564 15.2259 4.37959 14.9987 4.48399 14.7909C4.58838 14.5831 4.73115 14.3988 4.90412 14.2486C5.07708 14.0985 5.27681 13.9854 5.49185 13.9158C5.7069 13.8463 5.933 13.8217 6.1572 13.8435C6.37703 13.8186 6.59943 13.8416 6.81027 13.911C7.02112 13.9805 7.21581 14.0948 7.38199 14.2467C7.54817 14.3987 7.68221 14.585 7.77561 14.7938C7.869 15.0026 7.91971 15.2293 7.92452 15.4596H4.2958ZM6.18795 12.998C3.10553 12.998 2.98554 15.4665 3.00121 16.1071C3.00121 16.1071 2.84987 18.9964 6.11318 18.9964C8.91582 18.9964 9.0533 17.1856 9.0533 17.1856H7.76413C7.76413 17.1856 7.51269 18.1837 6.118 18.1566C5.64049 18.1668 5.17812 17.9819 4.82981 17.6415C4.48149 17.3011 4.27489 16.8322 4.2542 16.3351H9.22394C9.22394 16.3351 9.6002 12.9993 6.18734 12.9987L6.18795 12.998Z" fill="#EC3032"/>
<path d="M12.3395 18.1604C10.4461 18.1849 10.4757 16.0876 10.4757 16.0876C10.4601 15.8225 10.4966 15.5569 10.5829 15.3069C10.6692 15.057 10.8036 14.828 10.9778 14.634C11.1519 14.44 11.3622 14.2851 11.5959 14.1786C11.8295 14.0721 12.0815 14.0164 12.3365 14.0149C14.266 13.9634 14.2027 16.1272 14.2027 16.1272C14.2027 16.1272 14.2322 18.1321 12.3389 18.1566L12.3395 18.1604ZM12.6144 13.1795C12.2137 13.1525 11.8123 13.221 11.4407 13.3798C11.0692 13.5385 10.7373 13.7835 10.4702 14.0959V11H9.26852L9.28841 17.5398C9.28841 17.5398 9.28057 18.301 9.23535 18.8048H10.4021L10.4528 18.0705C10.4528 18.0705 10.9954 18.9951 12.5885 18.9951C12.9649 19.024 13.3429 18.97 13.6979 18.8366C14.0529 18.7032 14.3769 18.4933 14.6488 18.2207C14.9208 17.9481 15.1345 17.6189 15.2761 17.2545C15.4177 16.8901 15.484 16.4987 15.4707 16.1058C15.4842 15.7136 15.4192 15.3227 15.2798 14.958C15.1405 14.5933 14.9298 14.2628 14.6613 13.9875C14.3927 13.7122 14.0721 13.4981 13.7199 13.3588C13.3676 13.2194 12.9913 13.158 12.615 13.1783L12.6144 13.1795Z" fill="#0061D4"/>
<path d="M17.8121 18.1823C17.8121 18.1823 16.6942 18.1823 16.6285 17.1648C16.5591 16.0763 18.3475 16.1422 18.3475 16.1422H19.6138C19.6138 16.1422 19.8176 18.2149 17.8139 18.1835L17.8121 18.1823ZM20.7245 17.4738C20.7245 16.6058 20.7492 15.8307 20.7245 15.2836C20.6949 14.6498 20.7474 13.1198 18.3475 13.0074C18.3475 13.0074 16.0466 12.7674 15.8072 14.7233H16.9842C16.9842 14.7233 17.0753 13.827 18.2698 13.8528C19.3997 13.8779 19.606 14.5104 19.5999 15.2886C19.5999 15.2886 18.6309 15.2886 18.3078 15.2936C17.7253 15.2936 15.6872 15.3703 15.4967 16.7892C15.2706 18.4737 16.5887 19.0001 17.6192 18.9938C18.015 19.029 18.4128 18.956 18.7734 18.7822C19.134 18.6084 19.4448 18.3397 19.6753 18.0026L19.7223 18.7878L20.7474 18.7815C20.7474 18.7815 20.7209 18.3418 20.7245 17.4744V17.4738Z" fill="#F7B000"/>
<path d="M20.2687 13.498H21.6585L23.6906 17.7019L25.728 13.498H26.984L23.3059 20.9932H21.9624L23.0267 18.9104L20.2687 13.498Z" fill="#86BA00"/>
</g>
<defs>
<clipPath id="clip0_23676_93169">
<rect width="24" height="10" fill="white" transform="translate(3 11)"/>
</clipPath>
</defs>
</svg>
