<svg width="30" height="30" viewBox="0 0 30 30" fill="none" xmlns="http://www.w3.org/2000/svg">
<rect width="30" height="30" rx="6" fill="#1296DB"/>
<g clip-path="url(#clip0_24205_29730)">
<circle cx="14.1875" cy="15" r="8.9375" fill="white"/>
<path d="M19.2545 20.9682L21.3818 10.9227C21.5591 10.0364 21.0568 9.68182 20.4955 9.91818L7.93864 14.7341C7.08182 15.0591 7.11136 15.5614 7.79091 15.7682L11.0114 16.7727L18.4568 12.075C18.8114 11.8386 19.1364 11.9864 18.8705 12.1932L12.8432 17.6295L12.6068 20.9386C12.9318 20.9386 13.0795 20.7909 13.2568 20.6136L14.8227 19.1068L18.0727 21.5C18.6636 21.8545 19.1068 21.6773 19.2545 20.9682ZM28 15C28 22.1795 22.1795 28 15 28C7.82045 28 2 22.1795 2 15C2 7.82045 7.82045 2 15 2C22.1795 2 28 7.82045 28 15Z" fill="#1296DB"/>
</g>
<defs>
<clipPath id="clip0_24205_29730">
<rect width="26" height="26" fill="white" transform="translate(2 2)"/>
</clipPath>
</defs>
</svg>
